<?xml version="1.0" encoding="UTF-8"?>
<svg width="20px" height="20px" viewBox="0 0 20 20" version="1.1" xmlns="http://www.w3.org/2000/svg" xmlns:xlink="http://www.w3.org/1999/xlink">
    <!-- Generator: Sketch 48.1 (47250) - http://www.bohemiancoding.com/sketch -->
    <title>Artboard</title>
    <desc>Created with Sketch.</desc>
    <defs></defs>
    <g id="Page-1" stroke="none" stroke-width="1" fill="none" fill-rule="evenodd">
        <g id="Artboard" fill="#000000">
            <path d="M10,19 C5.02943725,19 1,14.9705627 1,10 C1,5.02943725 5.02943725,1 10,1 C14.9705627,1 19,5.02943725 19,10 C19,14.9705627 14.9705627,19 10,19 Z M10,18 C14.418278,18 18,14.418278 18,10 C18,5.581722 14.418278,2 10,2 C5.581722,2 2,5.581722 2,10 C2,14.418278 5.581722,18 10,18 Z" id="Combined-Shape"></path>
            <path d="M7.04884612,8.7180405 L13.8135793,4.81241995 L16.1817103,8.91414311 C17.3611469,8.22988409 18,7.96111409 18,10 C18,14.418278 14.418278,18 10,18 C5.581722,18 2,14.418278 2,10 C2,6.53649057 3.84352031,7.27409109 7.04884612,8.7180405 Z M7.04884612,8.7180405 L3.60063423,10.7088666 L6.18642066,15.18758 L16.3993658,9.29113344 L16.1817103,8.91414311 C14.8053008,9.7126775 12.6926691,11.0770676 10,10 C8.91952411,9.56780965 7.93244248,9.11608691 7.04884612,8.7180405 Z" id="Combined-Shape"></path>
        </g>
    </g>
</svg>